<?xml version="1.0" encoding="UTF-8" standalone="no"?>
<!-- Created with sK1/UniConvertor (http://sk1project.org/) -->

<svg
   xmlns:dc="http://purl.org/dc/elements/1.1/"
   xmlns:cc="http://creativecommons.org/ns#"
   xmlns:rdf="http://www.w3.org/1999/02/22-rdf-syntax-ns#"
   xmlns:svg="http://www.w3.org/2000/svg"
   xmlns="http://www.w3.org/2000/svg"
   xmlns:sodipodi="http://sodipodi.sourceforge.net/DTD/sodipodi-0.dtd"
   xmlns:inkscape="http://www.inkscape.org/namespaces/inkscape"
   width="595.276pt"
   height="841.89pt"
   viewBox="0 0 595.276 841.89"
   fill-rule="evenodd"
   version="1.1"
   id="svg128"
   sodipodi:docname="map.svg"
   inkscape:version="0.92.4 (5da689c313, 2019-01-14)">
  <metadata
     id="metadata134">
    <rdf:RDF>
      <cc:Work
         rdf:about="">
        <dc:format>image/svg+xml</dc:format>
        <dc:type
           rdf:resource="http://purl.org/dc/dcmitype/StillImage" />
      </cc:Work>
    </rdf:RDF>
  </metadata>
  <defs
     id="defs132" />
  <sodipodi:namedview
     pagecolor="#ffffff"
     bordercolor="#666666"
     borderopacity="1"
     objecttolerance="10"
     gridtolerance="10"
     guidetolerance="10"
     inkscape:pageopacity="0"
     inkscape:pageshadow="2"
     inkscape:window-width="1846"
     inkscape:window-height="1177"
     id="namedview130"
     showgrid="false"
     inkscape:zoom="1.189304"
     inkscape:cx="352.54902"
     inkscape:cy="724.73272"
     inkscape:window-x="1912"
     inkscape:window-y="-8"
     inkscape:window-maximized="1"
     inkscape:current-layer="svg128" />
  <g
     id="g126">
    <path
       style="stroke:#666666; stroke-width:1; stroke-linejoin:round; stroke-linecap:round; fill:#ff00ff"
       d="M 50 197.89L 150 197.89L 150 297.89L 50 297.89L 50 197.89z"
       id="path2"
       data-type="1" />
    <path
       style="stroke:#666666; stroke-width:1; stroke-linejoin:round; stroke-linecap:round; fill:#33ff00"
       d="M 1950 740.89L 2050 740.89L 2050 840.89L 1950 840.89L 1950 740.89z"
       id="path4" />
    <path
       style="stroke:#666666; stroke-width:1; stroke-linejoin:round; stroke-linecap:round; fill:#0099ff"
       d="M 750 346.89L 850 346.89L 850 446.89L 750 446.89L 750 346.89z"
       id="path6" />
    <path
       style="stroke:#666666; stroke-width:1; stroke-linejoin:round; stroke-linecap:round; fill:#0040e3"
       d="M 1500 346.89L 1600 346.89L 1600 446.89L 1500 446.89L 1500 346.89z"
       id="path8" />
    <path
       style="stroke:#666666; stroke-width:1; stroke-linejoin:round; stroke-linecap:round; fill:#ffff00"
       d="M 1930 146.89L 2030 146.89L 2030 246.89L 1930 246.89L 1930 146.89z"
       id="path10" />
    <path
       style="stroke:none; fill:#ff00ff"
       d="M 150 426.89L 450 426.89L 450 446.89L 150 446.89L 150 426.89z"
       id="path12" />
    <path
       style="stroke:none; fill:#ff0000"
       d="M 650 426.89L 750 426.89L 750 446.89L 650 446.89L 650 426.89z"
       id="path14" />
    <path
       style="stroke:none; fill:#ff0000"
       d="M 450 426.89L 600 426.89L 600 446.89L 450 446.89L 450 426.89z"
       id="path16" />
    <path
       style="stroke:none; fill:#ff0000"
       d="M 1 426.89L 151 426.89L 151 446.89L 1 446.89L 1 426.89z"
       id="path18" />
    <path
       style="stroke:none; fill:#ff0000"
       d="M 980 446.89L 1110 446.89L 1110 466.89L 980 466.89L 980 446.89z"
       id="path20" />
    <path
       style="stroke:none; fill:#ff0000"
       d="M 850 446.89L 980 446.89L 980 466.89L 850 466.89L 850 446.89z"
       id="path22" />
    <path
       style="stroke:none; fill:#ff0000"
       d="M 1802 346.89L 1932 346.89L 1932 366.89L 1802 366.89L 1802 346.89z"
       id="path24" />
    <path
       style="stroke:none; fill:#ff0000"
       d="M 1682 346.89L 1812 346.89L 1812 366.89L 1682 366.89L 1682 346.89z"
       id="path26" />
    <path
       style="stroke:none; fill:#ff0000"
       d="M 1600 346.89L 1730 346.89L 1730 366.89L 1600 366.89L 1600 346.89z"
       id="path28" />
    <path
       style="stroke:none; fill:#ff0000"
       d="M 1950 246.89L 1950 366.89L 1930 366.89L 1930 246.89L 1950 246.89z"
       id="path30" />
    <path
       style="stroke:none; fill:#ff0000"
       d="M 2172 247.89L 2172 414.89L 2152 414.89L 2152 247.89L 2172 247.89z"
       id="path32" />
    <path
       style="stroke:none; fill:#ff0000"
       d="M 2152 498.89L 2152 612.89L 2132 612.89L 2132 498.89L 2152 498.89z"
       id="path34" />
    <path
       style="stroke:none; fill:#ff0000"
       d="M 1970 366.89L 1970 533.89L 1950 533.89L 1950 366.89L 1970 366.89z"
       id="path36" />
    <path
       style="stroke:none; fill:#ff0000"
       d="M 1950 533.89L 1950 651.89L 1930 651.89L 1930 533.89L 1950 533.89z"
       id="path38" />
    <path
       style="stroke:none; fill:#ff0000"
       d="M 1556 101.89L 1556 268.89L 1536 268.89L 1536 101.89L 1556 101.89z"
       id="path40" />
    <path
       style="stroke:none; fill:#ff0000"
       d="M 1386 233.89L 1536 233.89L 1536 253.89L 1386 253.89L 1386 233.89z"
       id="path42" />
    <path
       style="stroke:none; fill:#ff0000"
       d="M 1556 -1.11023L 1556 148.89L 1536 148.89L 1536 -1.11023L 1556 -1.11023z"
       id="path44" />
    <path
       style="stroke:none; fill:#ff0000"
       d="M 1556 -151.11L 1556 -1.11023L 1536 -1.11023L 1536 -151.11L 1556 -151.11z"
       id="path46" />
    <path
       style="stroke:none; fill:#ff0000"
       d="M 1110 446.89L 1260 446.89L 1260 466.89L 1110 466.89L 1110 446.89z"
       id="path48" />
    <path
       style="stroke:none; fill:#ff0000"
       d="M 1260 446.89L 1410 446.89L 1410 466.89L 1260 466.89L 1260 446.89z"
       id="path50" />
    <path
       style="stroke:none; fill:#ff0000"
       d="M 1410 446.89L 1500 446.89L 1500 466.89L 1410 466.89L 1410 446.89z"
       id="path52" />
    <path
       style="stroke:none; fill:#ff0000"
       d="M 1387 326.89L 1500 326.89L 1500 346.89L 1387 346.89L 1387 326.89z"
       id="path54" />
    <path
       style="stroke:none; fill:#ff0000"
       d="M 1200 150.89L 1200 263.89L 1180 263.89L 1180 150.89L 1200 150.89z"
       id="path56" />
    <path
       style="stroke:none; fill:#ff0000"
       d="M 1200 333.89L 1200 446.89L 1180 446.89L 1180 333.89L 1200 333.89z"
       id="path58" />
    <path
       style="stroke:none; fill:#ff0000"
       d="M 1836 33.8898L 1836 146.89L 1816 146.89L 1816 33.8898L 1836 33.8898z"
       id="path60" />
    <path
       style="stroke:none; fill:#ff0000"
       d="M 1071 46.8898L 1071 159.89L 1051 159.89L 1051 46.8898L 1071 46.8898z"
       id="path62" />
    <path
       style="stroke:none; fill:#ff0000"
       d="M 1200 -27.1102L 1200 85.8898L 1180 85.8898L 1180 -27.1102L 1200 -27.1102z"
       id="path64" />
    <path
       style="stroke:none; fill:#ff0000"
       d="M 1071 236.89L 1071 349.89L 1051 349.89L 1051 236.89L 1071 236.89z"
       id="path66" />
    <path
       style="stroke:none; fill:#ff0000"
       d="M 1836 146.89L 1836 346.89L 1816 346.89L 1816 146.89L 1836 146.89z"
       id="path68" />
    <path
       style="stroke:none; fill:#ff0000"
       d="M 2082 227.89L 2152 227.89L 2152 247.89L 2082 247.89L 2082 227.89z"
       id="path70" />
    <path
       style="stroke:none; fill:#ff0000"
       d="M 1836 -1.11023L 1836 37.8898L 1816 37.8898L 1816 -1.11023L 1836 -1.11023z"
       id="path72" />
    <path
       style="stroke:none; fill:#ff0000"
       d="M 1970 513.89L 2040 513.89L 2040 533.89L 1970 533.89L 1970 513.89z"
       id="path74" />
    <path
       style="stroke:none; fill:#ff0000"
       d="M 2062 612.89L 2132 612.89L 2132 632.89L 2062 632.89L 2062 612.89z"
       id="path76" />
    <path
       style="stroke:none; fill:#ff0000"
       d="M 2082 426.89L 2152 426.89L 2152 446.89L 2082 446.89L 2082 426.89z"
       id="path78" />
    <path
       style="stroke:none; fill:#ff0000"
       d="M 1950 346.89L 2082 346.89L 2082 366.89L 1950 366.89L 1950 346.89z"
       id="path80" />
    <path
       style="stroke:none; fill:#ff0000"
       d="M 2172 414.89L 2172 498.89L 2152 498.89L 2152 414.89L 2172 414.89z"
       id="path82" />
    <path
       style="stroke:none; fill:#666666"
       d="M 901 297.89L 921 297.89L 921 317.89L 901 317.89L 901 297.89z"
       id="path84" />
    <path
       style="stroke:none; fill:#666666"
       d="M 1276 370.89L 1296 370.89L 1296 390.89L 1276 390.89L 1276 370.89z"
       id="path86" />
    <path
       style="stroke:none; fill:#ff0000"
       d="M 1276 232.89L 1296 232.89L 1296 252.89L 1276 252.89L 1276 232.89z"
       id="path88" />
    <path
       style="stroke:none; fill:#ff0000"
       d="M 1755 209.89L 1775 209.89L 1775 229.89L 1755 229.89L 1755 209.89z"
       id="path90" />
    <path
       style="stroke:none; fill:#ff0000"
       d="M 1597 176.89L 1617 176.89L 1617 196.89L 1597 196.89L 1597 176.89z"
       id="path92" />
    <path
       style="stroke:none; fill:#ff0000"
       d="M 1755 90.8898L 1775 90.8898L 1775 110.89L 1755 110.89L 1755 90.8898z"
       id="path94" />
    <path
       style="stroke:none; fill:#ff0000"
       d="M 1592 45.8898L 1612 45.8898L 1612 65.8898L 1592 65.8898L 1592 45.8898z"
       id="path96" />
    <path
       style="stroke:none; fill:#ff0000"
       d="M 1278 128.89L 1298 128.89L 1298 148.89L 1278 148.89L 1278 128.89z"
       id="path98" />
    <path
       style="stroke:none; fill:#666666"
       d="M 1556 268.89L 1597 268.89L 1597 288.89L 1556 288.89L 1556 268.89z"
       id="path100" />
    <path
       style="stroke:none; fill:#666666"
       d="M 1775 322.89L 1816 322.89L 1816 342.89L 1775 342.89L 1775 322.89z"
       id="path102" />
    <path
       style="stroke:none; fill:#666666"
       d="M 1775 209.89L 1816 209.89L 1816 229.89L 1775 229.89L 1775 209.89z"
       id="path104" />
    <path
       style="stroke:none; fill:#666666"
       d="M 1775 90.8898L 1816 90.8898L 1816 110.89L 1775 110.89L 1775 90.8898z"
       id="path106" />
    <path
       style="stroke:none; fill:#666666"
       d="M 1816 -21.1102L 1857 -21.1102L 1857 -1.11023L 1816 -1.11023L 1816 -21.1102z"
       id="path108" />
    <path
       style="stroke:none; fill:#666666"
       d="M 1556 176.89L 1597 176.89L 1597 196.89L 1556 196.89L 1556 176.89z"
       id="path110" />
    <path
       style="stroke:none; fill:#666666"
       d="M 1556 45.8898L 1592 45.8898L 1592 65.8898L 1556 65.8898L 1556 45.8898z"
       id="path112" />
    <path
       style="fill:#00c7d2;stroke:#ffff00;fill-opacity:1;stroke-width:0.74999998;stroke-miterlimit:4;stroke-dasharray:none;stroke-opacity:1"
       d="M 536.63062,353.38572 556,367.89 v 20 h -20 z"
       id="path114"
       inkscape:connector-curvature="0"
       sodipodi:nodetypes="ccccc" />
    <path
       style="stroke:none; fill:#666666"
       d="M 381 297.89L 401 297.89L 401 317.89L 381 317.89L 381 297.89z"
       id="path116" />
    <path
       style="stroke:none; fill:#666666"
       d="M 218 367.89L 238 367.89L 238 387.89L 218 387.89L 218 367.89z"
       id="path118" />
    <path
       style="stroke:none; fill:#666666"
       d="M 600 426.89L 650 426.89L 650 446.89L 600 446.89L 600 426.89z"
       id="path120" />
    <path
       style="stroke:none; fill:#000002"
       d="M 1993 678.89L 2006 678.89L 2006 690.89L 1993 690.89L 1993 678.89z"
       id="path122" />
    <path
       style="stroke:none; fill:#000001"
       d="M 92 141.89L 105 141.89L 105 153.89L 92 153.89L 92 141.89z"
       id="path124" />
  </g>
</svg>
